<?xml version="1.0" encoding="UTF-8" standalone="no"?>
<!-- Uploaded to: SVG Repo, www.svgrepo.com, Generator: SVG Repo Mixer Tools -->

<svg
   fill="#000000"
   width="800px"
   height="800px"
   viewBox="0 0 14 14"
   role="img"
   focusable="false"
   aria-hidden="true"
   version="1.1"
   id="svg1"
   sodipodi:docname="brand-fetlife-svgrepo-com.svg"
   inkscape:version="1.3.2 (091e20ef0f, 2023-11-25, custom)"
   xmlns:inkscape="http://www.inkscape.org/namespaces/inkscape"
   xmlns:sodipodi="http://sodipodi.sourceforge.net/DTD/sodipodi-0.dtd"
   xmlns="http://www.w3.org/2000/svg"
   xmlns:svg="http://www.w3.org/2000/svg">
  <defs
     id="defs1" />
  <sodipodi:namedview
     id="namedview1"
     pagecolor="#ffffff"
     bordercolor="#666666"
     borderopacity="1.0"
     inkscape:showpageshadow="2"
     inkscape:pageopacity="0.0"
     inkscape:pagecheckerboard="0"
     inkscape:deskcolor="#d1d1d1"
     inkscape:zoom="2.22"
     inkscape:cx="400"
     inkscape:cy="400.22523"
     inkscape:window-width="3840"
     inkscape:window-height="2033"
     inkscape:window-x="0"
     inkscape:window-y="0"
     inkscape:window-maximized="1"
     inkscape:current-layer="svg1" />
  <path
     d="M 6.7664067,12.786415 C 6.3616257,12.391244 5.9320964,12.02537 4.8802917,11.17993 3.7921396,10.305293 3.4389549,9.9988143 3.0021262,9.5504464 2.1748654,8.7012072 1.7913329,7.96326 1.7156083,7.0749236 1.6857104,6.7247486 1.7246077,6.3888727 1.8369396,6.0381978 1.8921357,5.8650102 2.0005679,5.6222276 2.0753726,5.504036 2.1014707,5.463039 2.1223692,5.421042 2.1218692,5.4120426 2.1213093,5.4020433 2.1053704,5.3013505 2.0863718,5.1865588 1.9703601,4.484309 2.0143769,3.7609608 2.2182123,3.0199139 2.3867303,2.4073577 2.7124469,1.7243066 3.0978793,1.1753459 3.1672744,1.076353 3.2254802,0.99755858 3.2271701,1.0000584 c 0.002,0 -0.004,0.086994 -0.011699,0.1880866 -0.027498,0.3412756 0.006,0.8726375 0.081094,1.2938074 0.1141519,0.6389542 0.3423855,1.1991141 0.6606627,1.6214839 l 0.083294,0.1104921 0.3614641,0.01 c 0.3083579,0.01 0.3880522,0.014999 0.5423812,0.051996 0.6670422,0.1571887 1.3223653,0.5114633 1.913403,1.0345259 l 0.14103,0.1247907 0.052896,-0.043997 C 7.0807942,5.3672458 7.1525591,5.3042503 7.2111749,5.252554 7.6262852,4.8853803 8.1913247,4.5519042 8.6804797,4.3855161 9.0483534,4.2603251 9.193633,4.2348269 9.5991239,4.2247276 l 0.3614741,-0.01 0.083294,-0.110592 c 0.352145,-0.4672666 0.584418,-1.076123 0.69495,-1.8217696 0.0429,-0.2890793 0.0669,-0.8135418 0.0485,-1.0601241 -0.009,-0.1192915 -0.0149,-0.2189844 -0.0133,-0.2214842 0.002,0 0.05969,0.075995 0.12913,0.1752875 0.385433,0.5489607 0.711159,1.2320118 0.879677,1.8446679 0.204506,0.7434468 0.248093,1.4601955 0.131731,2.1665449 -0.0189,0.1147918 -0.0348,0.2162845 -0.0354,0.2254839 -5.7e-4,0.01 0.0204,0.050996 0.0465,0.091993 0.122061,0.1927862 0.259721,0.5505606 0.314818,0.8179414 0.123631,0.6002571 0.0315,1.2751087 -0.257142,1.8830652 -0.213585,0.4499678 -0.519733,0.8684379 -0.98443,1.3454037 -0.437088,0.4486686 -0.791143,0.7558468 -1.8781663,1.6293838 -1.0410055,0.83654 -1.4967529,1.225013 -1.9045237,1.623184 -0.110912,0.108292 -0.2085751,0.196586 -0.2170244,0.196286 -0.008,-3e-4 -0.1132219,-0.09599 -0.2328034,-0.212885 z"
     id="path1" />
  <path
     style="fill:#fff6ea;stroke:none;stroke-width:0.45045;fill-opacity:1"
     d="m 396.95451,739.99108 c -1.57752,-1.43203 -7.46171,-6.99594 -13.07597,-12.36423 C 360.15341,704.94113 339.2907,687.19302 283.10811,641.90045 216.57225,588.26144 200.12779,574.06851 175,548.59423 158.82796,532.19919 150.68261,522.94261 140.2874,509.14586 113.69108,473.84671 100.37519,439.25497 97.981702,399.24501 c -1.322977,-22.11515 2.907768,-45.37515 12.219748,-67.18233 3.21607,-7.53152 5.626,-12.40461 8.50629,-17.20048 1.19122,-1.98345 2.29781,-4.13202 2.45908,-4.7746 0.16128,-0.64258 -0.43145,-5.8103 -1.31718,-11.48382 -3.33128,-21.33846 -4.06906,-31.51903 -3.71815,-51.30648 0.41093,-23.17201 2.98783,-43.07908 8.4242,-65.07857 10.2131,-41.32962 30.01444,-83.591633 56.01289,-119.54835 3.79402,-5.247256 3.75181,-5.303418 3.03248,4.034939 -0.98753,12.820245 -0.56623,31.591897 1.10614,49.285671 4.52296,47.85326 18.61936,88.28192 41.4817,118.97005 l 4.55307,6.11159 13.00739,0.31245 c 29.03796,0.69752 35.53187,1.59732 53.99754,7.48188 34.14793,10.88212 64.36944,28.76249 96.61589,57.1622 2.84548,2.50603 5.3861,4.55643 5.64583,4.55643 0.25973,0 3.9447,-3.01657 8.18884,-6.70348 9.58231,-8.32421 15.15763,-12.84808 21.53227,-17.47146 22.11261,-16.03776 45.24635,-28.29494 68.01802,-36.03867 20.49596,-6.96986 28.94794,-8.25979 58.79306,-8.97289 l 12.84712,-0.30696 3.92067,-5.30263 c 20.67036,-27.95618 33.24527,-59.8715 39.92487,-101.33004 2.98658,-18.53691 4.45554,-49.247872 3.22067,-67.332457 -0.31486,-4.611219 -0.47441,-8.482087 -0.35459,-8.601928 0.31068,-0.310686 9.56667,12.795053 14.53009,20.573412 21.92522,34.359973 38.14333,72.654903 46.35509,109.455583 4.8905,21.91678 7.02504,41.18473 7.0232,63.39577 -0.002,18.11465 -0.77307,27.50016 -3.87572,47.14926 -0.86068,5.45045 -1.45117,10.3672 -1.31226,10.9261 0.13892,0.55891 1.18262,2.58594 2.31933,4.50451 9.2682,15.64343 16.9377,37.3968 19.5323,55.40022 4.74572,32.93029 -1.39095,68.67857 -17.37946,101.24124 -11.69698,23.82241 -26.27131,43.88266 -51.02198,70.22725 -23.77352,25.30451 -44.97622,43.82969 -112.45032,98.24987 -60.43234,48.74076 -79.08734,64.62144 -106.30631,90.49662 -6.19369,5.88788 -11.8079,11.09779 -12.47601,11.57757 l -1.21476,0.87229 z"
     id="path2"
     transform="scale(0.0175)" />
  <path
     style="fill:#fff6ea;fill-opacity:1;stroke-width:0.45045"
     d="M 391.21622,734.175 C 358.21935,702.8777 343.94623,690.67063 278.82883,638.05604 211.3501,583.53347 194.69051,568.91802 167.34323,540.24968 133.70502,504.98655 114.10962,473.0669 104.33457,437.61261 c -3.67013,-13.31166 -6.359289,-32.94305 -6.355484,-46.39639 0.007,-24.6659 7.312574,-51.83185 20.048244,-74.54955 1.66666,-2.97298 3.12197,-6.11487 3.23401,-6.98199 0.11205,-0.86711 -0.61082,-7.25225 -1.60637,-14.18918 -2.88595,-20.10906 -2.98841,-21.5691 -2.98723,-42.56757 0.001,-20.06429 0.28683,-25.07778 2.27174,-39.86487 6.31591,-47.05178 26.00873,-97.1915 55.19854,-140.540537 7.0883,-10.52664 9.13569,-13.219479 9.32812,-12.268829 0.0884,0.436829 -0.0423,5.605748 -0.2905,11.486487 -0.96668,22.904251 1.06563,50.501459 5.3817,73.079639 5.99329,31.352 16.43911,58.67929 30.87324,80.76737 4.9431,7.56427 10.91349,15.62789 11.57516,15.63343 5.96182,0.0499 31.28599,1.02171 35.4357,1.35986 12.01196,0.97883 22.15705,3.32872 37.38739,8.66 19.05981,6.67176 37.30786,15.8284 55.04257,27.61967 7.8667,5.23034 20.46427,14.76051 28.29076,21.40223 3.59234,3.04853 7.80116,6.61838 9.35291,7.933 1.55176,1.31461 3.10716,2.39021 3.45643,2.39021 0.71685,0 0.47557,0.19274 12.41429,-9.91688 28.03848,-23.74276 55.61097,-39.82345 86.10617,-50.21839 19.27695,-6.57096 27.86921,-7.9124 56.17881,-8.77075 8.71013,-0.2641 14.80684,-0.6298 15.14243,-0.9083 1.24779,-1.03557 10.32067,-14.15569 14.01743,-20.27039 4.44333,-7.34944 11.62617,-21.86503 14.79505,-29.89876 7.54292,-19.123 13.82355,-44.98386 16.20567,-66.72825 1.59482,-14.5578 1.83532,-20.06458 1.83532,-42.027339 0,-25.467004 -0.61644,-23.393138 4.71292,-15.85554 29.9369,42.341189 50.60392,91.479559 58.5414,139.189189 3.09261,18.58856 3.81559,29.40224 3.50284,52.39233 -0.25554,18.78237 -0.35946,20.04499 -3.28712,39.92752 -0.89198,6.05745 -1.51896,11.63177 -1.39333,12.38739 0.12563,0.75561 1.59495,3.80627 3.26518,6.77925 10.03545,17.86289 16.85986,38.99019 19.20621,59.45946 0.74055,6.46003 0.72356,26.06581 -0.0281,32.43243 -2.88712,24.45576 -9.30937,45.49769 -20.4123,66.87926 -12.23806,23.56754 -26.80599,42.832 -53.46459,70.70096 -19.2832,20.15865 -41.7505,39.85239 -91.27378,80.00617 -50.30485,40.78748 -58.46259,47.43649 -69.81982,56.90739 -21.66447,18.06613 -31.99219,27.22599 -53.37927,47.34311 -10.97788,10.32604 -12.52113,11.72356 -12.9226,11.70266 -0.20064,-0.0104 -4.1148,-3.57586 -8.69813,-7.92311 z"
     id="path3"
     transform="scale(0.0175)" />
  <path
     style="fill:#fff6ea;fill-opacity:1;stroke-width:0.45045"
     d="m 387.61261,730.78734 c -27.3884,-25.93013 -43.6739,-39.94103 -90.76576,-78.0886 -66.02984,-53.4886 -78.13997,-63.52721 -96.12164,-79.67942 -8.10747,-7.28261 -33.66029,-32.6877 -40.68537,-40.45018 -29.06613,-32.11709 -47.20918,-63.21578 -55.92343,-95.85743 -4.18172,-15.66378 -6.504201,-34.82921 -6.004452,-49.54955 0.833179,-24.54164 7.476392,-47.96977 20.117222,-70.94594 l 3.22173,-5.85586 -0.28989,-3.15315 c -0.15944,-1.73424 -0.98325,-7.91667 -1.8307,-13.73874 -2.59687,-17.8409 -3.02758,-24.82693 -2.74936,-44.5946 0.2468,-17.53557 0.7562,-24.99253 2.56939,-37.61261 5.90887,-41.12672 21.56135,-83.89817 45.16757,-123.423422 3.57792,-5.99072 16.11872,-24.812011 17.85828,-26.801802 l 1.37832,-1.576577 -0.25957,9.90991 c -0.14276,5.450451 -0.34118,10.171099 -0.44095,10.490329 -0.32545,1.041419 0.69705,25.356722 1.38679,32.978142 4.48298,49.53507 17.46369,88.2065 40.41041,120.38852 2.16177,3.03181 4.3915,6.07122 4.95496,6.75424 l 1.02447,1.24187 15.09009,0.44964 c 28.86577,0.86012 36.32395,2.06329 57.08335,9.20886 31.08531,10.69983 57.2474,26.32435 88.56116,52.89048 4.41754,3.74778 8.31094,6.81414 8.65201,6.81414 0.58701,0 2.35295,-1.43146 15.44739,-12.5215 34.4876,-29.2085 80.30749,-51.32067 114.03987,-55.03438 5.78054,-0.6364 19.27536,-1.34328 25.90091,-1.35673 2.97297,-0.006 7.40603,-0.14344 9.85121,-0.30535 l 4.44586,-0.29438 3.06054,-4.12578 c 3.88703,-5.23992 10.84775,-15.89674 13.89423,-21.27198 8.35752,-14.74602 15.83392,-33.53281 20.54595,-51.62808 7.38986,-28.37873 10.0309,-52.37125 9.58982,-87.118475 -0.12023,-9.468365 -0.0592,-17.116729 0.13554,-16.996363 1.29797,0.802203 15.11549,21.604113 20.9295,31.508869 4.81775,8.207558 14.43244,26.971789 18.23383,35.585589 11.80392,26.74715 19.23198,51.06907 23.79969,77.92792 3.06288,18.01025 3.84459,29.65082 3.5322,52.59995 -0.25527,18.75461 -0.29198,19.20011 -3.3236,40.34512 l -1.70099,11.86398 1.7259,3.22611 c 7.39423,13.8212 11.40041,23.01227 15.05595,34.5416 11.27175,35.55016 8.42513,75.92126 -8.07595,114.53317 -11.63126,27.21674 -28.09032,50.65706 -57.00081,81.17836 -20.86581,22.02843 -41.87842,40.56955 -92.71689,81.81158 -9.90991,8.03928 -26.73424,21.68631 -37.38739,30.32671 -42.37882,34.37203 -58.88168,48.53892 -84.23423,72.31099 -13.01182,12.20068 -15.46482,14.42743 -15.87447,14.41036 -0.18796,-0.008 -5.71337,-5.09982 -12.27869,-11.31554 z"
     id="path4"
     transform="scale(0.0175)" />
  <path
     style="fill:#fff6ea;fill-opacity:1;stroke-width:0.45045"
     d=""
     id="path5"
     transform="scale(0.0175)" />
</svg>
